<?xml version="1.0" encoding="utf-8"?>
<!-- Generator: Adobe Illustrator 28.0.0, SVG Export Plug-In . SVG Version: 6.00 Build 0)  -->
<svg version="1.1" id="Layer_1" xmlns="http://www.w3.org/2000/svg" xmlns:xlink="http://www.w3.org/1999/xlink" x="0px" y="0px"
	 viewBox="0 0 700 142" style="enable-background:new 0 0 700 142;" xml:space="preserve">
<style type="text/css">
	.st0{fill:#121228;}
	.st1{fill:#BCADD4;}
</style>
<g>
	<path class="st0" d="M19.8,75.3H7.6V20.8h10c12.3,0,21,3.2,21,13.2c0,6-3.7,9.9-9.6,10.6c9.2,1,14.3,5.7,14.3,14.6
		C43.3,71.5,34.1,75.3,19.8,75.3z M18.2,25.4h-4.8v17.3h5.2c10.6,0,14.2-2.5,14.2-8.4C32.8,27.6,27.8,25.4,18.2,25.4z M20.3,47.4h-7
		v23h7.8c11.5,0,16-3.4,16.2-11.3C37.4,51.8,33.1,47.4,20.3,47.4z"/>
	<path class="st0" d="M112.5,75.7c-17.1,0-17.6-24.6-31.3-24.6h-5.1v24.2h-5.8V20.7h11.4c12.1,0,19.7,5.3,19.7,15
		c0,7.6-5.2,12.1-12.1,13.2c8.8,2.8,12.6,22,24.4,21.8L112.5,75.7z M82.2,25.4h-6.2v21.1h5.6c8.8,0,14-3.5,14-10.6
		C95.7,29,90.7,25.4,82.2,25.4z"/>
	<path class="st0" d="M137.1,75.3V20.7h5.8v54.6H137.1z"/>
	<path class="st0" d="M219,68.7c-2.1,1.9-10.4,7.2-21.2,7.2c-16.1,0-27.9-10.1-27.9-28.1c0-17.8,12.3-27.9,28.8-27.9
		c9.2,0,16.6,4,18.7,5.4l-0.4,5.1c-2.4-1.6-10-5.7-18.3-5.7c-13,0-23.1,8.3-23.1,23.1c0,15,9.5,23.3,22.2,23.3
		c7,0,13.4-2.8,15.3-4.6V46.2h5.8V68.7z"/>
	<path class="st0" d="M286.7,75.3V47.5h-32.9v27.8H248V20.7h5.8v21.9h32.9V20.7h5.9v54.6H286.7z"/>
	<path class="st0" d="M338.4,25.5v49.7h-5.7V25.5h-15.7l1.2-4.8h35.5v4.8H338.4z"/>
	<path class="st1" d="M367.9,75.3l20.1-54.6h5.2l-20.1,54.6H367.9z"/>
	<path class="st0" d="M459.7,75.7c-17.1,0-17.6-24.6-31.3-24.6h-5.1v24.2h-5.8V20.7H429c12.1,0,19.7,5.3,19.7,15
		c0,7.6-5.2,12.1-12.1,13.2c8.8,2.8,12.6,22,24.4,21.8L459.7,75.7z M429.5,25.4h-6.2v21.1h5.6c8.8,0,14-3.5,14-10.6
		C442.9,29,437.9,25.4,429.5,25.4z"/>
	<path class="st0" d="M484.3,75.3V20.7h5.8v54.6H484.3z"/>
	<path class="st0" d="M539.1,64.9l19.1-44.2h6.1l-24.6,55.6h-1.1l-24.7-55.6h6L539.1,64.9z"/>
	<path class="st0" d="M588.2,75.3V20.7h28.4v4.8H594v17.1h17.2v4.8H594v22.9h29.9l-1.2,4.9H588.2z"/>
	<path class="st0" d="M690,75.7c-17.1,0-17.6-24.6-31.3-24.6h-5.1v24.2h-5.8V20.7h11.4c12.1,0,19.7,5.3,19.7,15
		c0,7.6-5.2,12.1-12.1,13.2c8.8,2.8,12.6,22,24.4,21.8L690,75.7z M659.7,25.4h-6.2v21.1h5.6c8.8,0,14-3.5,14-10.6
		C673.2,29,668.2,25.4,659.7,25.4z"/>
</g>
<g>
	<path d="M32.7,96.6l-10.4,25.7H18L7.6,96.6h3.8c0.4,0,0.8,0.1,1,0.3c0.3,0.2,0.5,0.5,0.6,0.8l6.1,15.7c0.2,0.5,0.4,1.1,0.6,1.7
		c0.2,0.6,0.4,1.2,0.5,1.9c0.1-0.7,0.3-1.3,0.5-1.9c0.2-0.6,0.3-1.2,0.6-1.7l6-15.7c0.1-0.3,0.3-0.5,0.6-0.7c0.3-0.2,0.6-0.3,1-0.3
		H32.7z"/>
	<path d="M40,122.3h-4.8V96.6H40V122.3z"/>
	<path d="M59.4,101.3c-0.1,0.2-0.3,0.4-0.5,0.5c-0.2,0.1-0.4,0.2-0.6,0.2c-0.2,0-0.5-0.1-0.8-0.3c-0.3-0.2-0.6-0.4-1-0.6
		c-0.4-0.2-0.9-0.4-1.4-0.6s-1.2-0.3-1.9-0.3c-0.7,0-1.2,0.1-1.7,0.2c-0.5,0.2-0.9,0.4-1.3,0.7s-0.6,0.6-0.8,1
		c-0.2,0.4-0.2,0.8-0.2,1.3c0,0.6,0.2,1.1,0.5,1.5s0.8,0.7,1.3,1c0.6,0.3,1.2,0.5,1.9,0.8c0.7,0.2,1.4,0.5,2.2,0.7
		c0.7,0.3,1.5,0.6,2.2,0.9c0.7,0.3,1.3,0.8,1.9,1.3c0.6,0.5,1,1.1,1.3,1.9s0.5,1.7,0.5,2.7c0,1.2-0.2,2.2-0.6,3.3
		c-0.4,1-1,1.9-1.7,2.6s-1.7,1.3-2.8,1.8c-1.1,0.4-2.4,0.6-3.8,0.6c-0.8,0-1.6-0.1-2.4-0.2c-0.8-0.2-1.6-0.4-2.3-0.7
		c-0.7-0.3-1.4-0.7-2.1-1.1c-0.6-0.4-1.2-0.9-1.7-1.4l1.4-2.3c0.1-0.2,0.3-0.3,0.5-0.4c0.2-0.1,0.4-0.2,0.6-0.2c0.3,0,0.6,0.1,1,0.4
		c0.3,0.2,0.8,0.5,1.2,0.8c0.5,0.3,1,0.6,1.7,0.8s1.4,0.4,2.3,0.4c1.4,0,2.4-0.3,3.2-1c0.7-0.6,1.1-1.6,1.1-2.8
		c0-0.7-0.2-1.2-0.5-1.7s-0.8-0.8-1.3-1.1c-0.6-0.3-1.2-0.5-1.9-0.7c-0.7-0.2-1.4-0.4-2.2-0.7c-0.7-0.2-1.5-0.5-2.2-0.9
		c-0.7-0.3-1.3-0.8-1.9-1.3c-0.6-0.5-1-1.2-1.3-2c-0.3-0.8-0.5-1.8-0.5-3c0-0.9,0.2-1.8,0.6-2.7s0.9-1.7,1.6-2.4
		c0.7-0.7,1.6-1.2,2.6-1.7c1-0.4,2.2-0.6,3.6-0.6c1.5,0,2.9,0.2,4.2,0.7c1.3,0.5,2.4,1.1,3.3,2L59.4,101.3z"/>
	<path d="M75.4,118.4c0.9,0,1.7-0.2,2.5-0.5c0.7-0.3,1.3-0.7,1.8-1.3c0.5-0.6,0.9-1.2,1.1-2c0.3-0.8,0.4-1.7,0.4-2.7V96.6H86V112
		c0,1.5-0.2,2.9-0.7,4.2c-0.5,1.3-1.2,2.4-2.1,3.4c-0.9,0.9-2,1.7-3.3,2.2s-2.8,0.8-4.4,0.8c-1.7,0-3.1-0.3-4.5-0.8
		s-2.4-1.3-3.3-2.2s-1.6-2.1-2.1-3.4c-0.5-1.3-0.7-2.7-0.7-4.2V96.6h4.8V112c0,1,0.1,1.9,0.4,2.7c0.3,0.8,0.7,1.5,1.2,2
		c0.5,0.6,1.1,1,1.8,1.3C73.6,118.3,74.5,118.4,75.4,118.4z"/>
	<path d="M112.4,122.3h-3.7c-0.4,0-0.8-0.1-1-0.3c-0.3-0.2-0.5-0.5-0.6-0.8l-1.9-5.2H94.5l-1.9,5.2c-0.1,0.3-0.3,0.5-0.6,0.7
		c-0.3,0.2-0.6,0.3-1,0.3h-3.7l10.1-25.7h4.9L112.4,122.3z M104,112.6l-3.1-8.5c-0.2-0.4-0.3-0.8-0.5-1.3c-0.2-0.5-0.3-1.1-0.5-1.7
		c-0.2,0.6-0.3,1.2-0.5,1.7c-0.2,0.5-0.3,1-0.5,1.4l-3.1,8.5H104z"/>
	<path d="M130,118.4v3.9h-15V96.6h4.8v21.7H130z"/>
	<path d="M150.8,96.6c1.7,0,3.2,0.2,4.5,0.6c1.3,0.4,2.3,1,3.1,1.7c0.8,0.7,1.4,1.6,1.8,2.6c0.4,1,0.6,2.1,0.6,3.3
		c0,1.2-0.2,2.4-0.6,3.4s-1,1.9-1.9,2.7c-0.8,0.7-1.9,1.3-3.1,1.7c-1.2,0.4-2.7,0.6-4.4,0.6h-3.6v9h-4.8V96.6H150.8z M150.8,109.5
		c0.9,0,1.6-0.1,2.3-0.3c0.7-0.2,1.2-0.5,1.6-0.9s0.8-0.9,1-1.5s0.3-1.2,0.3-2c0-0.7-0.1-1.3-0.3-1.9c-0.2-0.6-0.5-1-1-1.4
		s-1-0.7-1.6-0.9c-0.7-0.2-1.4-0.3-2.3-0.3h-3.6v9.2H150.8z"/>
	<path d="M184,122.3h-4.3c-0.8,0-1.4-0.3-1.8-1l-5.4-8.2c-0.2-0.3-0.4-0.5-0.7-0.7c-0.2-0.1-0.6-0.2-1.1-0.2h-2v10h-4.8V96.6h7.8
		c1.7,0,3.2,0.2,4.5,0.5s2.3,0.9,3.1,1.5c0.8,0.7,1.4,1.4,1.8,2.3c0.4,0.9,0.6,1.9,0.6,3c0,0.9-0.1,1.7-0.4,2.5
		c-0.3,0.8-0.6,1.5-1.1,2.1c-0.5,0.6-1.1,1.2-1.8,1.7c-0.7,0.5-1.5,0.8-2.4,1.1c0.3,0.2,0.6,0.4,0.9,0.6c0.3,0.2,0.5,0.5,0.7,0.9
		L184,122.3z M171.7,108.8c0.9,0,1.7-0.1,2.4-0.3c0.7-0.2,1.2-0.5,1.7-0.9c0.4-0.4,0.8-0.9,1-1.4c0.2-0.5,0.3-1.1,0.3-1.8
		c0-1.3-0.4-2.3-1.3-3c-0.9-0.7-2.2-1-3.9-1h-3.1v8.5H171.7z"/>
	<path d="M210.6,109.5c0,1.9-0.3,3.6-0.9,5.2c-0.6,1.6-1.5,3-2.6,4.2c-1.1,1.2-2.5,2.1-4.1,2.7s-3.4,1-5.3,1c-1.9,0-3.7-0.3-5.3-1
		c-1.6-0.7-3-1.6-4.1-2.7c-1.1-1.2-2-2.6-2.7-4.2c-0.6-1.6-0.9-3.3-0.9-5.2c0-1.9,0.3-3.6,0.9-5.2c0.6-1.6,1.5-3,2.7-4.2
		c1.1-1.2,2.5-2.1,4.1-2.7c1.6-0.7,3.4-1,5.3-1c1.3,0,2.5,0.2,3.7,0.5c1.1,0.3,2.2,0.7,3.2,1.3s1.8,1.2,2.6,2
		c0.8,0.8,1.4,1.7,1.9,2.6s0.9,2,1.2,3.2C210.5,107,210.6,108.2,210.6,109.5z M205.8,109.5c0-1.4-0.2-2.7-0.6-3.8
		c-0.4-1.1-0.9-2.1-1.6-2.8c-0.7-0.8-1.5-1.4-2.5-1.8c-1-0.4-2.1-0.6-3.4-0.6s-2.4,0.2-3.4,0.6c-1,0.4-1.9,1-2.6,1.8
		c-0.7,0.8-1.2,1.7-1.6,2.8c-0.4,1.1-0.6,2.4-0.6,3.8c0,1.4,0.2,2.7,0.6,3.8c0.4,1.1,0.9,2.1,1.6,2.8c0.7,0.8,1.6,1.4,2.6,1.8
		c1,0.4,2.1,0.6,3.4,0.6s2.4-0.2,3.4-0.6c1-0.4,1.8-1,2.5-1.8c0.7-0.8,1.2-1.7,1.6-2.8C205.6,112.1,205.8,110.9,205.8,109.5z"/>
	<path d="M237.6,109.5c0,1.9-0.3,3.6-0.9,5.2s-1.5,2.9-2.6,4.1c-1.1,1.1-2.5,2-4.1,2.6c-1.6,0.6-3.4,0.9-5.3,0.9h-9.8V96.6h9.8
		c2,0,3.7,0.3,5.3,1c1.6,0.6,3,1.5,4.1,2.6c1.1,1.1,2,2.5,2.6,4.1S237.6,107.6,237.6,109.5z M232.7,109.5c0-1.4-0.2-2.7-0.6-3.8
		c-0.4-1.1-0.9-2.1-1.6-2.8c-0.7-0.8-1.6-1.4-2.6-1.8c-1-0.4-2.1-0.6-3.4-0.6h-5v18.1h5c1.3,0,2.4-0.2,3.4-0.6c1-0.4,1.9-1,2.6-1.8
		c0.7-0.8,1.2-1.7,1.6-2.8C232.5,112.1,232.7,110.9,232.7,109.5z"/>
	<path d="M252,118.4c0.9,0,1.7-0.2,2.5-0.5c0.7-0.3,1.3-0.7,1.8-1.3c0.5-0.6,0.9-1.2,1.1-2c0.3-0.8,0.4-1.7,0.4-2.7V96.6h4.8V112
		c0,1.5-0.2,2.9-0.7,4.2c-0.5,1.3-1.2,2.4-2.1,3.4c-0.9,0.9-2,1.7-3.3,2.2s-2.8,0.8-4.4,0.8c-1.7,0-3.1-0.3-4.5-0.8
		s-2.4-1.3-3.3-2.2s-1.6-2.1-2.1-3.4c-0.5-1.3-0.7-2.7-0.7-4.2V96.6h4.8V112c0,1,0.1,1.9,0.4,2.7c0.3,0.8,0.7,1.5,1.2,2
		c0.5,0.6,1.1,1,1.8,1.3C250.2,118.3,251.1,118.4,252,118.4z"/>
	<path d="M285.6,116.2c0.3,0,0.5,0.1,0.7,0.3l1.9,2c-1,1.3-2.3,2.3-3.8,3c-1.5,0.7-3.3,1-5.5,1c-1.9,0-3.6-0.3-5.1-1
		c-1.5-0.7-2.8-1.6-3.9-2.7s-1.9-2.5-2.5-4.2c-0.6-1.6-0.9-3.4-0.9-5.3c0-1.9,0.3-3.7,0.9-5.3s1.5-3,2.6-4.1s2.5-2.1,4-2.7
		c1.6-0.6,3.3-1,5.1-1c1.9,0,3.5,0.3,5,0.9c1.4,0.6,2.7,1.4,3.7,2.4l-1.6,2.2c-0.1,0.1-0.2,0.3-0.4,0.4c-0.1,0.1-0.4,0.2-0.6,0.2
		c-0.2,0-0.4,0-0.6-0.2c-0.2-0.1-0.4-0.2-0.6-0.4c-0.2-0.1-0.5-0.3-0.8-0.5c-0.3-0.2-0.6-0.3-1-0.5c-0.4-0.1-0.8-0.3-1.4-0.4
		c-0.5-0.1-1.1-0.2-1.8-0.2c-1.1,0-2.2,0.2-3.2,0.6c-1,0.4-1.8,1-2.5,1.8c-0.7,0.8-1.2,1.7-1.6,2.8c-0.4,1.1-0.6,2.4-0.6,3.8
		c0,1.4,0.2,2.7,0.6,3.9c0.4,1.1,1,2.1,1.7,2.8c0.7,0.8,1.5,1.4,2.5,1.8c0.9,0.4,2,0.6,3.1,0.6c0.7,0,1.2,0,1.8-0.1s1-0.2,1.5-0.3
		c0.4-0.2,0.9-0.4,1.3-0.6c0.4-0.2,0.8-0.5,1.2-0.9c0.1-0.1,0.2-0.2,0.4-0.3C285.3,116.3,285.4,116.2,285.6,116.2z"/>
	<path d="M310,100.5h-7.7v21.8h-4.8v-21.8h-7.7v-3.9H310V100.5z"/>
	<path d="M340,116.2c0.3,0,0.5,0.1,0.7,0.3l1.9,2c-1,1.3-2.3,2.3-3.8,3c-1.5,0.7-3.3,1-5.5,1c-1.9,0-3.6-0.3-5.1-1
		c-1.5-0.7-2.8-1.6-3.9-2.7c-1.1-1.2-1.9-2.5-2.5-4.2c-0.6-1.6-0.9-3.4-0.9-5.3c0-1.9,0.3-3.7,0.9-5.3c0.6-1.6,1.5-3,2.6-4.1
		c1.1-1.2,2.5-2.1,4-2.7c1.6-0.6,3.3-1,5.1-1c1.9,0,3.5,0.3,5,0.9s2.7,1.4,3.7,2.4l-1.6,2.2c-0.1,0.1-0.2,0.3-0.4,0.4
		c-0.1,0.1-0.4,0.2-0.6,0.2c-0.2,0-0.4,0-0.6-0.2c-0.2-0.1-0.4-0.2-0.6-0.4c-0.2-0.1-0.5-0.3-0.8-0.5c-0.3-0.2-0.6-0.3-1-0.5
		c-0.4-0.1-0.8-0.3-1.4-0.4s-1.1-0.2-1.8-0.2c-1.1,0-2.2,0.2-3.2,0.6c-1,0.4-1.8,1-2.5,1.8s-1.2,1.7-1.6,2.8
		c-0.4,1.1-0.6,2.4-0.6,3.8c0,1.4,0.2,2.7,0.6,3.9c0.4,1.1,1,2.1,1.7,2.8s1.5,1.4,2.5,1.8s2,0.6,3.1,0.6c0.7,0,1.2,0,1.8-0.1
		s1-0.2,1.5-0.3c0.4-0.2,0.9-0.4,1.3-0.6c0.4-0.2,0.8-0.5,1.2-0.9c0.1-0.1,0.2-0.2,0.4-0.3C339.7,116.3,339.8,116.2,340,116.2z"/>
	<path d="M369.6,109.5c0,1.9-0.3,3.6-0.9,5.2c-0.6,1.6-1.5,3-2.6,4.2c-1.1,1.2-2.5,2.1-4.1,2.7s-3.4,1-5.3,1c-1.9,0-3.7-0.3-5.3-1
		c-1.6-0.7-3-1.6-4.1-2.7c-1.1-1.2-2-2.6-2.7-4.2c-0.6-1.6-0.9-3.3-0.9-5.2c0-1.9,0.3-3.6,0.9-5.2c0.6-1.6,1.5-3,2.7-4.2
		s2.5-2.1,4.1-2.7c1.6-0.7,3.4-1,5.3-1c1.3,0,2.5,0.2,3.7,0.5s2.2,0.7,3.2,1.3c1,0.6,1.8,1.2,2.6,2s1.4,1.7,1.9,2.6
		c0.5,1,0.9,2,1.2,3.2C369.5,107,369.6,108.2,369.6,109.5z M364.7,109.5c0-1.4-0.2-2.7-0.6-3.8c-0.4-1.1-0.9-2.1-1.6-2.8
		s-1.5-1.4-2.5-1.8c-1-0.4-2.1-0.6-3.4-0.6s-2.4,0.2-3.4,0.6c-1,0.4-1.9,1-2.6,1.8c-0.7,0.8-1.2,1.7-1.6,2.8
		c-0.4,1.1-0.6,2.4-0.6,3.8c0,1.4,0.2,2.7,0.6,3.8c0.4,1.1,0.9,2.1,1.6,2.8c0.7,0.8,1.6,1.4,2.6,1.8c1,0.4,2.1,0.6,3.4,0.6
		s2.4-0.2,3.4-0.6c1-0.4,1.8-1,2.5-1.8s1.2-1.7,1.6-2.8C364.5,112.1,364.7,110.9,364.7,109.5z"/>
	<path d="M395.4,96.6v25.7H393c-0.4,0-0.7-0.1-1-0.2c-0.3-0.1-0.5-0.3-0.7-0.6l-13.4-17.1c0.1,0.8,0.1,1.5,0.1,2.2v15.8h-4.2V96.6
		h2.5c0.2,0,0.4,0,0.5,0c0.1,0,0.3,0.1,0.4,0.1c0.1,0.1,0.2,0.1,0.3,0.2s0.2,0.2,0.4,0.4l13.5,17.2c0-0.4-0.1-0.8-0.1-1.2
		c0-0.4,0-0.8,0-1.1V96.6H395.4z"/>
	<path d="M418.6,100.5h-7.7v21.8h-4.8v-21.8h-7.7v-3.9h20.3V100.5z"/>
	<path d="M426.3,100.4v7.1h9v3.7h-9v7.3h11.4v3.8h-16.2V96.6h16.2v3.8H426.3z"/>
	<path d="M463.4,96.6v25.7h-2.5c-0.4,0-0.7-0.1-1-0.2c-0.3-0.1-0.5-0.3-0.7-0.6l-13.4-17.1c0.1,0.8,0.1,1.5,0.1,2.2v15.8h-4.2V96.6
		h2.5c0.2,0,0.4,0,0.5,0c0.1,0,0.3,0.1,0.4,0.1c0.1,0.1,0.2,0.1,0.3,0.2s0.2,0.2,0.4,0.4l13.5,17.2c0-0.4-0.1-0.8-0.1-1.2
		c0-0.4,0-0.8,0-1.1V96.6H463.4z"/>
	<path d="M486.5,100.5h-7.7v21.8H474v-21.8h-7.7v-3.9h20.3V100.5z"/>
	<path d="M512.6,101.3c-0.1,0.2-0.3,0.4-0.5,0.5s-0.4,0.2-0.6,0.2c-0.2,0-0.5-0.1-0.8-0.3s-0.6-0.4-1-0.6c-0.4-0.2-0.9-0.4-1.4-0.6
		s-1.2-0.3-1.9-0.3c-0.7,0-1.2,0.1-1.7,0.2c-0.5,0.2-0.9,0.4-1.3,0.7c-0.3,0.3-0.6,0.6-0.8,1c-0.2,0.4-0.2,0.8-0.2,1.3
		c0,0.6,0.2,1.1,0.5,1.5c0.3,0.4,0.8,0.7,1.3,1s1.2,0.5,1.9,0.8s1.4,0.5,2.2,0.7c0.7,0.3,1.5,0.6,2.2,0.9c0.7,0.3,1.3,0.8,1.9,1.3
		c0.6,0.5,1,1.1,1.3,1.9c0.3,0.7,0.5,1.7,0.5,2.7c0,1.2-0.2,2.2-0.6,3.3c-0.4,1-1,1.9-1.7,2.6c-0.8,0.8-1.7,1.3-2.8,1.8
		c-1.1,0.4-2.4,0.6-3.8,0.6c-0.8,0-1.6-0.1-2.4-0.2c-0.8-0.2-1.6-0.4-2.3-0.7c-0.7-0.3-1.4-0.7-2.1-1.1c-0.6-0.4-1.2-0.9-1.7-1.4
		l1.4-2.3c0.1-0.2,0.3-0.3,0.5-0.4c0.2-0.1,0.4-0.2,0.6-0.2c0.3,0,0.6,0.1,1,0.4c0.3,0.2,0.8,0.5,1.2,0.8s1,0.6,1.7,0.8
		c0.6,0.2,1.4,0.4,2.3,0.4c1.4,0,2.4-0.3,3.2-1c0.7-0.6,1.1-1.6,1.1-2.8c0-0.7-0.2-1.2-0.5-1.7c-0.3-0.4-0.8-0.8-1.3-1.1
		s-1.2-0.5-1.9-0.7c-0.7-0.2-1.4-0.4-2.2-0.7c-0.7-0.2-1.5-0.5-2.2-0.9c-0.7-0.3-1.3-0.8-1.9-1.3c-0.6-0.5-1-1.2-1.3-2
		c-0.3-0.8-0.5-1.8-0.5-3c0-0.9,0.2-1.8,0.6-2.7s0.9-1.7,1.6-2.4c0.7-0.7,1.6-1.2,2.6-1.7c1-0.4,2.2-0.6,3.6-0.6
		c1.5,0,2.9,0.2,4.2,0.7c1.3,0.5,2.4,1.1,3.3,2L512.6,101.3z"/>
	<path d="M542.6,109.5c0,1.9-0.3,3.6-0.9,5.2c-0.6,1.6-1.5,3-2.6,4.2c-1.1,1.2-2.5,2.1-4.1,2.7s-3.4,1-5.3,1c-1.9,0-3.7-0.3-5.3-1
		c-1.6-0.7-3-1.6-4.1-2.7c-1.1-1.2-2-2.6-2.7-4.2c-0.6-1.6-0.9-3.3-0.9-5.2c0-1.9,0.3-3.6,0.9-5.2c0.6-1.6,1.5-3,2.7-4.2
		s2.5-2.1,4.1-2.7c1.6-0.7,3.4-1,5.3-1c1.3,0,2.5,0.2,3.7,0.5s2.2,0.7,3.2,1.3c1,0.6,1.8,1.2,2.6,2s1.4,1.7,1.9,2.6
		c0.5,1,0.9,2,1.2,3.2C542.5,107,542.6,108.2,542.6,109.5z M537.7,109.5c0-1.4-0.2-2.7-0.6-3.8c-0.4-1.1-0.9-2.1-1.6-2.8
		s-1.5-1.4-2.5-1.8c-1-0.4-2.1-0.6-3.4-0.6s-2.4,0.2-3.4,0.6c-1,0.4-1.9,1-2.6,1.8c-0.7,0.8-1.2,1.7-1.6,2.8
		c-0.4,1.1-0.6,2.4-0.6,3.8c0,1.4,0.2,2.7,0.6,3.8c0.4,1.1,0.9,2.1,1.6,2.8c0.7,0.8,1.6,1.4,2.6,1.8c1,0.4,2.1,0.6,3.4,0.6
		s2.4-0.2,3.4-0.6c1-0.4,1.8-1,2.5-1.8s1.2-1.7,1.6-2.8C537.6,112.1,537.7,110.9,537.7,109.5z"/>
	<path d="M561.8,118.4v3.9h-15V96.6h4.8v21.7H561.8z"/>
	<path d="M574.5,118.4c0.9,0,1.7-0.2,2.5-0.5c0.7-0.3,1.3-0.7,1.8-1.3s0.9-1.2,1.1-2c0.3-0.8,0.4-1.7,0.4-2.7V96.6h4.8V112
		c0,1.5-0.2,2.9-0.7,4.2c-0.5,1.3-1.2,2.4-2.1,3.4c-0.9,0.9-2,1.7-3.3,2.2c-1.3,0.5-2.8,0.8-4.4,0.8c-1.7,0-3.1-0.3-4.5-0.8
		c-1.3-0.5-2.4-1.3-3.3-2.2c-0.9-0.9-1.6-2.1-2.1-3.4c-0.5-1.3-0.7-2.7-0.7-4.2V96.6h4.8V112c0,1,0.1,1.9,0.4,2.7
		c0.3,0.8,0.7,1.5,1.2,2c0.5,0.6,1.1,1,1.8,1.3C572.8,118.3,573.6,118.4,574.5,118.4z"/>
	<path d="M608.2,100.5h-7.7v21.8h-4.8v-21.8h-7.7v-3.9h20.3V100.5z"/>
	<path d="M615.9,122.3h-4.8V96.6h4.8V122.3z"/>
	<path d="M646.1,109.5c0,1.9-0.3,3.6-0.9,5.2c-0.6,1.6-1.5,3-2.6,4.2c-1.1,1.2-2.5,2.1-4.1,2.7s-3.4,1-5.3,1c-1.9,0-3.7-0.3-5.3-1
		c-1.6-0.7-3-1.6-4.1-2.7c-1.1-1.2-2-2.6-2.7-4.2c-0.6-1.6-0.9-3.3-0.9-5.2c0-1.9,0.3-3.6,0.9-5.2c0.6-1.6,1.5-3,2.7-4.2
		s2.5-2.1,4.1-2.7c1.6-0.7,3.4-1,5.3-1c1.3,0,2.5,0.2,3.7,0.5s2.2,0.7,3.2,1.3c1,0.6,1.8,1.2,2.6,2s1.4,1.7,1.9,2.6
		c0.5,1,0.9,2,1.2,3.2C646,107,646.1,108.2,646.1,109.5z M641.2,109.5c0-1.4-0.2-2.7-0.6-3.8c-0.4-1.1-0.9-2.1-1.6-2.8
		s-1.5-1.4-2.5-1.8c-1-0.4-2.1-0.6-3.4-0.6s-2.4,0.2-3.4,0.6c-1,0.4-1.9,1-2.6,1.8c-0.7,0.8-1.2,1.7-1.6,2.8
		c-0.4,1.1-0.6,2.4-0.6,3.8c0,1.4,0.2,2.7,0.6,3.8c0.4,1.1,0.9,2.1,1.6,2.8c0.7,0.8,1.6,1.4,2.6,1.8c1,0.4,2.1,0.6,3.4,0.6
		s2.4-0.2,3.4-0.6c1-0.4,1.8-1,2.5-1.8s1.2-1.7,1.6-2.8C641,112.1,641.2,110.9,641.2,109.5z"/>
	<path d="M671.9,96.6v25.7h-2.5c-0.4,0-0.7-0.1-1-0.2c-0.3-0.1-0.5-0.3-0.7-0.6l-13.4-17.1c0.1,0.8,0.1,1.5,0.1,2.2v15.8h-4.2V96.6
		h2.5c0.2,0,0.4,0,0.5,0c0.1,0,0.3,0.1,0.4,0.1c0.1,0.1,0.2,0.1,0.3,0.2s0.2,0.2,0.4,0.4l13.5,17.2c0-0.4-0.1-0.8-0.1-1.2
		c0-0.4,0-0.8,0-1.1V96.6H671.9z"/>
	<path d="M691.2,101.3c-0.1,0.2-0.3,0.4-0.5,0.5s-0.4,0.2-0.6,0.2c-0.2,0-0.5-0.1-0.8-0.3s-0.6-0.4-1-0.6c-0.4-0.2-0.9-0.4-1.4-0.6
		s-1.2-0.3-1.9-0.3c-0.7,0-1.2,0.1-1.7,0.2c-0.5,0.2-0.9,0.4-1.3,0.7c-0.3,0.3-0.6,0.6-0.8,1c-0.2,0.4-0.2,0.8-0.2,1.3
		c0,0.6,0.2,1.1,0.5,1.5c0.3,0.4,0.8,0.7,1.3,1s1.2,0.5,1.9,0.8s1.4,0.5,2.2,0.7c0.7,0.3,1.5,0.6,2.2,0.9c0.7,0.3,1.3,0.8,1.9,1.3
		c0.6,0.5,1,1.1,1.3,1.9c0.3,0.7,0.5,1.7,0.5,2.7c0,1.2-0.2,2.2-0.6,3.3c-0.4,1-1,1.9-1.7,2.6c-0.8,0.8-1.7,1.3-2.8,1.8
		c-1.1,0.4-2.4,0.6-3.8,0.6c-0.8,0-1.6-0.1-2.4-0.2c-0.8-0.2-1.6-0.4-2.3-0.7c-0.7-0.3-1.4-0.7-2.1-1.1c-0.6-0.4-1.2-0.9-1.7-1.4
		l1.4-2.3c0.1-0.2,0.3-0.3,0.5-0.4c0.2-0.1,0.4-0.2,0.6-0.2c0.3,0,0.6,0.1,1,0.4c0.3,0.2,0.8,0.5,1.2,0.8s1,0.6,1.7,0.8
		c0.6,0.2,1.4,0.4,2.3,0.4c1.4,0,2.4-0.3,3.2-1c0.7-0.6,1.1-1.6,1.1-2.8c0-0.7-0.2-1.2-0.5-1.7c-0.3-0.4-0.8-0.8-1.3-1.1
		s-1.2-0.5-1.9-0.7c-0.7-0.2-1.4-0.4-2.2-0.7c-0.7-0.2-1.5-0.5-2.2-0.9c-0.7-0.3-1.3-0.8-1.9-1.3c-0.6-0.5-1-1.2-1.3-2
		c-0.3-0.8-0.5-1.8-0.5-3c0-0.9,0.2-1.8,0.6-2.7s0.9-1.7,1.6-2.4c0.7-0.7,1.6-1.2,2.6-1.7c1-0.4,2.2-0.6,3.6-0.6
		c1.5,0,2.9,0.2,4.2,0.7c1.3,0.5,2.4,1.1,3.3,2L691.2,101.3z"/>
</g>
</svg>
